<svg width="32" height="32" fill="none" xmlns="http://www.w3.org/2000/svg">
  <path d="M19.64 3.06a1.602 1.602 0 0 0-1.98 1.1l-6.4 22.4a1.602 1.602 0 1 0 3.08.88l6.4-22.4a1.602 1.602 0 0 0-1.1-1.98Zm4.03 6.005a1.602 1.602 0 0 0 0 2.265l4.465 4.47-4.47 4.47a1.602 1.602 0 0 0 2.265 2.265l5.6-5.6a1.602 1.602 0 0 0 0-2.265l-5.6-5.6a1.602 1.602 0 0 0-2.265 0l.005-.005Zm-15.335 0a1.602 1.602 0 0 0-2.265 0l-5.6 5.6a1.602 1.602 0 0 0 0 2.265l5.6 5.6a1.602 1.602 0 0 0 2.265-2.265L3.865 15.8l4.47-4.47a1.602 1.602 0 0 0 0-2.265Z" fill="#fff"/>
</svg>